<?xml version="1.0" standalone="no"?>
<!DOCTYPE svg PUBLIC "-//W3C//DTD SVG 20010904//EN"
 "http://www.w3.org/TR/2001/REC-SVG-20010904/DTD/svg10.dtd">
<svg version="1.0" xmlns="http://www.w3.org/2000/svg"
 width="700.000000pt" height="700.000000pt" viewBox="0 0 700.000000 700.000000"
 preserveAspectRatio="xMidYMid meet">
<metadata>
Created by potrace 1.11, written by Peter Selinger 2001-2013
</metadata>
<g transform="translate(0.000000,700.000000) scale(0.100000,-0.100000)"
fill="#000000" stroke="none">
<path d="M2594 6090 c-18 -19 -48 -51 -66 -71 -18 -20 -58 -63 -88 -96 -76
-82 -221 -241 -242 -265 -9 -10 -37 -41 -62 -68 l-45 -48 -478 0 c-263 -1
-500 -4 -528 -7 -235 -32 -441 -226 -487 -459 -12 -57 -14 -385 -13 -1890 l1
-1821 22 -70 c66 -211 238 -367 453 -411 48 -10 4793 -11 4858 -1 250 37 444
230 489 487 9 50 8 3663 -1 3695 -3 11 -8 34 -12 50 -22 90 -100 213 -182 284
-61 55 -190 117 -272 131 -41 7 -233 11 -547 11 l-483 1 -104 111 c-57 62
-119 130 -138 151 -19 22 -45 51 -59 66 -14 14 -50 53 -80 86 -30 32 -78 84
-106 114 l-50 55 -874 0 -873 0 -33 -35z m1074 -1435 c26 -3 63 -9 82 -11 149
-22 403 -118 512 -195 14 -11 29 -19 32 -19 3 0 34 -21 68 -47 192 -145 343
-325 445 -533 64 -132 112 -276 128 -392 3 -24 9 -56 11 -73 12 -63 10 -281
-2 -370 -21 -148 -70 -316 -121 -414 -13 -24 -23 -48 -23 -52 0 -11 -97 -164
-146 -229 -121 -163 -319 -325 -508 -418 -67 -32 -184 -80 -216 -87 -8 -2 -42
-11 -75 -20 -146 -39 -396 -53 -560 -30 -187 26 -408 107 -573 212 -243 154
-458 405 -557 651 -56 138 -63 159 -83 247 -28 120 -35 179 -37 309 -3 231 42
443 138 646 221 466 666 778 1177 826 36 4 66 7 68 9 5 4 196 -3 240 -10z"/>
<path d="M3452 4270 c-26 -58 -109 -238 -182 -402 -134 -293 -135 -296 -175
-314 -22 -9 -71 -32 -110 -50 -38 -18 -140 -64 -225 -102 -85 -38 -180 -81
-210 -95 -30 -14 -91 -42 -135 -62 l-80 -36 94 -45 c51 -24 96 -44 98 -44 3 0
47 -20 100 -45 52 -25 96 -45 98 -45 2 0 43 -19 92 -41 48 -23 126 -58 173
-79 47 -20 98 -43 114 -51 32 -15 33 -16 257 -511 74 -164 136 -298 139 -298
3 0 32 60 64 133 33 72 78 173 101 222 23 50 54 117 69 150 15 33 50 112 79
175 l53 114 174 79 c96 43 211 95 255 116 44 20 144 66 222 102 77 35 140 66
138 69 -2 3 -180 86 -397 184 l-393 178 -59 131 c-33 73 -74 164 -92 202 -18
39 -73 160 -123 270 l-90 199 -49 -104z"/>
</g>
</svg>
